<?xml version="1.0" encoding="UTF-8"?>
<svg viewBox="0 0 272 234" version="1.1" xmlns="http://www.w3.org/2000/svg" xmlns:xlink="http://www.w3.org/1999/xlink">
    <!-- Generator: Sketch 58 (84663) - https://sketch.com -->
    <title>img_about_3</title>
    <desc>Created with Sketch.</desc>
    <defs>
        <polygon id="path-1" points="0.282261961 0.119626453 144.006518 0.119626453 144.006518 183.107744 0.282261961 183.107744"></polygon>
        <polygon id="path-3" points="0.461769115 0.721580556 82.8115938 0.721580556 82.8115938 66.6340378 0.461769115 66.6340378"></polygon>
        <polygon id="path-5" points="0 0.0415365058 108.283952 0.0415365058 108.283952 142.370009 0 142.370009"></polygon>
    </defs>
    <g id="Page-1" stroke="none" stroke-width="1" fill="none" fill-rule="evenodd">
        <g id="About" transform="translate(-827.000000, -2099.000000)">
            <g id="img_about_3" transform="translate(827.000000, 2098.000000)">
                <g id="Group-3" transform="translate(54.841079, 51.770051)">
                    <mask id="mask-2" fill="white">
                        <use xlink:href="#path-1"></use>
                    </mask>
                    <g id="Clip-2"></g>
                    <path d="M135.399623,31.1507943 C133.739179,27.2858987 131.868178,23.5059458 129.591272,19.9639929 C124.402986,11.8932286 117.180376,6.09227912 108.103977,2.92535657 C99.4154685,-0.106138384 90.0892826,-0.40023266 81.0256934,0.719248822 C71.9621042,1.83913098 63.3276364,4.48958552 55.4621447,9.21031953 C51.6120607,11.521003 48.2091117,14.3161007 45.6319813,18.0291411 C43.0624565,21.7321646 41.2791207,25.9107875 39.7239558,30.1226663 C35.0332421,42.8260165 31.1691477,55.8619256 27.1381282,68.7852455 C23.1583471,81.5422859 19.2798418,94.3353869 15.0947069,107.027118 C13.8994115,110.651208 12.7221297,114.302144 11.2174025,117.812845 C7.45938756,126.580781 2.42441604,135.067444 0.750762369,144.575424 C-0.946108696,154.216427 2.13379835,164.211225 7.28845952,172.373343 C9.69426162,176.182545 12.8930577,179.61832 17.0525735,181.499882 C21.2781387,183.411094 26.1233681,183.51006 30.5690982,182.36734 C39.7755945,180.001363 47.3628778,172.113707 52.4290727,164.38672 C57.5168838,156.626077 59.8366214,147.04237 60.9382466,137.91503 C62.4581852,125.322666 61.3597624,112.436609 61.4286139,99.7817404 C61.4654415,92.9959357 61.5527069,86.174471 62.2067969,79.4151108 C62.5566589,75.800636 63.1362931,72.1957774 63.9336904,68.6538246 C64.4572826,66.3295182 65.0897564,64.0268481 65.9003636,61.7854811 C66.6096949,59.8221815 67.6272571,57.987498 68.326581,56.0262017 C70.2260037,50.7020535 65.7966859,45.2072185 63.6979138,40.5089222 C62.9141267,38.7547741 61.6491792,35.8635148 63.5441987,34.3373498 C64.4744955,33.5880906 66.1773711,33.4254172 67.2529768,33.9619189 C68.7525,34.7107774 70.0350607,36.6652623 71.1330832,37.916966 C72.4096394,39.3710098 73.6189453,40.8791444 74.785419,42.421737 C77.6551687,36.2870266 83.4218883,32.4129155 87.4236859,27.0739424 C91.3222061,21.872801 93.0983366,15.9584609 93.7808478,9.59176061 C93.7928568,9.65106027 93.8160742,9.7123633 93.8577054,9.774067 C97.7053876,15.5173195 103.253143,19.9095013 109.318086,23.1289121 C112.333545,24.7292017 115.480302,25.9268145 118.685903,27.0787505 C121.886301,28.2282825 125.474188,29.62503 127.209888,32.7735215 C129.206984,36.3948077 129.10811,41.5530771 129.129726,45.5786428 C129.152143,49.7608717 128.755846,53.9763566 127.85237,58.0620232 C126.418095,64.5461209 123.292154,71.5651175 116.93259,74.5152758 C112.4076,76.6148044 107.189292,76.2429795 102.337257,76.1211747 C97.2998838,75.9949626 92.2625105,75.8691512 87.2251372,75.7429391 C86.5810547,75.7269121 86.581455,76.7285956 87.2251372,76.7446226 C92.1300112,76.8676293 97.0348853,76.9902354 101.939359,77.1128414 C103.134654,77.1428919 104.341959,77.1865653 105.552065,77.2098044 C105.618115,77.7226663 105.548863,77.9742892 105.022068,78.5556663 C103.664651,80.0541848 102.332854,81.5711343 101.064304,83.1469828 C98.556425,86.2618178 96.265509,89.5537505 94.1991612,92.9775047 C90.0420472,99.8646798 86.808425,107.301979 84.6319948,115.048599 C82.5500352,122.455447 81.2874895,130.782643 84.95944,137.916633 C88.5349183,144.864309 95.9708883,147.650993 103.43568,146.041087 C110.547007,144.508111 116.285705,139.467639 121.074493,134.251673 C125.791226,129.114239 129.823046,123.363774 133.135927,117.227862 C147.479872,90.6572051 146.995109,58.6221646 135.399623,31.1507943" id="Fill-1" fill="#EF5322" mask="url(#mask-2)"></path>
                </g>
                <path d="M161.941745,98.4398872 C162.768364,99.497665 163.81835,100.563056 164.433611,101.766278 C165.303063,103.468739 163.835563,104.426348 162.462134,105.06382 C161.586679,105.470103 162.348449,106.76588 163.219902,106.3612 C164.718224,105.666032 166.331033,104.568988 166.259779,102.710264 C166.183322,100.704894 164.147797,98.842564 163.00294,97.3773013 C162.408895,96.6164226 161.352904,97.6866212 161.941745,98.4398872" id="Fill-4" fill="#EF5322"></path>
                <path d="M153.061293,90.3950064 C154.027216,90.3950064 154.028817,88.8924811 153.061293,88.8924811 C152.095769,88.8924811 152.093768,90.3950064 153.061293,90.3950064" id="Fill-6" fill="#EF5322"></path>
                <path d="M171.058734,90.7867047 C172.024657,90.7867047 172.026259,89.2841795 171.058734,89.2841795 C170.09281,89.2841795 170.091209,90.7867047 171.058734,90.7867047" id="Fill-8" fill="#EF5322"></path>
                <path d="M150.514065,86.9514589 C151.583666,86.5916542 152.662874,86.498698 153.772505,86.7242771 C154.715612,86.915799 155.119114,85.4677653 154.171604,85.2754421 C152.803379,84.9973747 151.441559,85.0562737 150.114966,85.5026239 C149.204284,85.8091391 149.594576,87.2607788 150.514065,86.9514589" id="Fill-10" fill="#EF5322"></path>
                <path d="M169.255463,87.6094848 C170.38631,86.9603939 171.665669,86.6699057 172.966243,86.8458013 C173.91055,86.9736162 174.319256,85.5259832 173.365342,85.3969663 C171.647655,85.1645758 170.008827,85.4450471 168.497696,86.3121044 C167.660268,86.7929125 168.415234,88.0914949 169.255463,87.6094848" id="Fill-12" fill="#EF5322"></path>
                <path d="M153.103885,114.509655 C157.752967,116.632824 162.849184,116.962578 167.713228,115.363891 C168.627112,115.063386 168.236019,113.612147 167.314529,113.915056 C162.850385,115.382322 158.146061,115.168763 153.861652,113.212275 C152.988999,112.814005 152.225226,114.108581 153.103885,114.509655" id="Fill-14" fill="#EF5322"></path>
                <path d="M94.5014276,105.383998 C94.6623481,104.08221 94.823669,102.780823 94.9841892,101.479035 C95.0630483,100.841163 94.0614981,100.846772 93.9834396,101.479035 C93.8229193,102.780823 93.6615985,104.08221 93.500678,105.383998 C93.4218189,106.022271 94.4233691,106.016661 94.5014276,105.383998" id="Fill-16" fill="#EEECE9"></path>
                <path d="M97.7038264,110.23451 L98.8931172,105.931278 C99.0648459,105.309032 98.0997229,105.043386 97.9283946,105.66483 C97.5312972,107.099241 97.1350003,108.533652 96.7387034,109.968062 C96.5665745,110.590709 97.5320978,110.855955 97.7038264,110.23451" id="Fill-18" fill="#EEECE9"></path>
                <path d="M100.196694,117.920868 L100.196694,119.878959 C100.196694,120.523643 101.197443,120.524845 101.197443,119.878959 L101.197443,117.920868 C101.197443,117.276586 100.196694,117.275384 100.196694,117.920868" id="Fill-20" fill="#EEECE9"></path>
                <path d="M104.688739,100.801857 C104.338076,100.264153 103.471026,100.765396 103.824491,101.307507 C104.212382,101.901305 104.164746,102.580847 103.739227,103.139786 C103.348535,103.652247 104.217185,104.151887 104.603074,103.645436 C105.229143,102.824056 105.249158,101.661301 104.688739,100.801857" id="Fill-22" fill="#EEECE9"></path>
                <path d="M99.4711502,91.2424306 C99.9907394,90.588131 100.510729,89.9338313 101.030318,89.2799323 C101.427416,88.7802926 100.723688,88.0670939 100.322588,88.5715418 C99.8029988,89.2258414 99.2830093,89.8797404 98.7630198,90.5340401 C98.3663226,91.0336798 99.0700498,91.7468785 99.4711502,91.2424306" id="Fill-24" fill="#EEECE9"></path>
                <path d="M106.072575,112.182704 C106.230293,112.807354 107.195816,112.542509 107.037698,111.916257 C106.805524,110.995509 106.57335,110.074361 106.341176,109.153213 C106.183458,108.528563 105.217935,108.793408 105.376053,109.419661 C105.608227,110.340809 105.840401,111.261556 106.072575,112.182704" id="Fill-26" fill="#EEECE9"></path>
                <path d="M112.396832,100.727732 C111.940491,100.271365 111.233161,100.979355 111.689102,101.436123 C111.8196,101.566342 111.950098,101.696961 112.080596,101.827581 C112.536537,102.283948 113.244267,101.575958 112.788326,101.11919 C112.657428,100.988571 112.52693,100.858352 112.396832,100.727732" id="Fill-28" fill="#EEECE9"></path>
                <path d="M109.324211,131.741576 C109.920257,129.314297 109.945076,126.883011 109.404671,124.44291 C109.265767,123.813853 108.300244,124.0799 108.439548,124.709358 C108.941924,126.976768 108.913103,129.219738 108.359488,131.475129 C108.205773,132.10098 109.170496,132.36823 109.324211,131.741576" id="Fill-30" fill="#EEECE9"></path>
                <path d="M104.878321,143.377332 C105.168138,145.552188 105.173742,147.718629 104.859907,149.891881 C104.769039,150.522541 105.733361,150.794999 105.82503,150.158329 C106.152475,147.890918 106.182097,145.650353 105.87907,143.377332 C105.795407,142.747874 104.793457,142.73946 104.878321,143.377332" id="Fill-32" fill="#EEECE9"></path>
                <path d="M102.370962,140.634242 L102.370962,137.501377 C102.370962,136.856693 101.370213,136.855892 101.370213,137.501377 L101.370213,140.634242 C101.370213,141.278525 102.370962,141.279727 102.370962,140.634242" id="Fill-34" fill="#EEECE9"></path>
                <path d="M95.5795552,134.729999 C96.9005447,133.533588 97.7631909,131.955336 98.0413993,130.192773 C98.1406736,129.562514 97.1767516,129.290457 97.0762763,129.926726 C96.8224862,131.533827 96.0783288,132.928972 94.871825,134.021608 C94.3934667,134.455137 95.1031984,135.161925 95.5795552,134.729999" id="Fill-36" fill="#EEECE9"></path>
                <path d="M90.1235082,123.620488 C90.7703928,122.702945 91.4172774,121.785403 92.0645622,120.868262 C92.4360405,120.340575 91.568991,119.839333 91.1999145,120.362612 C90.55303,121.280154 89.9061454,122.197696 89.2596612,123.114838 C88.8873823,123.642525 89.7544318,124.143767 90.1235082,123.620488" id="Fill-38" fill="#EEECE9"></path>
                <path d="M83.927467,135.802682 C84.4434535,134.786574 85.1579888,133.905093 86.0746754,133.223948 C86.5862586,132.844109 86.087485,131.974247 85.5698973,132.358894 C84.513506,133.144214 83.6608673,134.120655 83.0636199,135.297032 C82.7722016,135.870396 83.6356484,136.378049 83.927467,135.802682" id="Fill-40" fill="#EEECE9"></path>
                <path d="M81.1503868,150.273683 C82.1971709,148.056356 83.243955,145.838629 84.2911394,143.621302 C84.5645442,143.041528 83.7018981,142.532673 83.4268921,143.115653 C82.3797076,145.332979 81.3333238,147.550706 80.2865397,149.768033 C80.0127346,150.347807 80.8753808,150.856663 81.1503868,150.273683" id="Fill-42" fill="#EEECE9"></path>
                <path d="M90.8643031,145.074505 C90.3363076,145.984434 89.8083121,146.894363 89.2803166,147.804693 C88.9560738,148.363232 89.8211217,148.86808 90.144564,148.310343 C90.6725595,147.400013 91.200555,146.490084 91.7285505,145.580155 C92.0527934,145.021616 91.1881457,144.516767 90.8643031,145.074505" id="Fill-44" fill="#EEECE9"></path>
                <path d="M94.3947076,147.952582 C94.0432444,149.722356 94.2894288,151.456471 95.13206,153.053154 C95.4326852,153.623312 96.2969325,153.117663 95.995907,152.547504 C95.2845742,151.198838 95.0624078,149.715945 95.3594303,148.21903 C95.4847241,147.589171 94.5200015,147.319919 94.3947076,147.952582" id="Fill-46" fill="#EEECE9"></path>
                <path d="M98.0083345,154.393888 C97.5195684,154.814995 98.2301006,155.520982 98.7160646,155.102278 C99.5314754,154.399497 99.8497138,153.294039 99.5835144,152.258298 C99.4225939,151.634851 98.4570706,151.898894 98.6179912,152.524746 C98.8013285,153.236743 98.5595474,153.91909 98.0083345,154.393888" id="Fill-48" fill="#EEECE9"></path>
                <path d="M65.9397931,192.367869 C65.4506267,192.788977 66.1615592,193.494964 66.6475232,193.07626 C67.462934,192.373479 67.7811724,191.268021 67.514973,190.23228 C67.3540525,189.608832 66.3885292,189.872876 66.5494498,190.498728 C66.7327871,191.210725 66.4906057,191.893071 65.9397931,192.367869" id="Fill-50" fill="#EEECE9"></path>
                <path d="M94.7097837,159.292561 C94.4239696,160.567103 93.8559441,161.697002 92.9820895,162.669035 C92.5517672,163.147039 93.2574958,163.857833 93.6894193,163.377426 C94.674157,162.282386 95.3518646,160.997827 95.6749066,159.559008 C95.8158121,158.931153 94.8514898,158.662702 94.7097837,159.292561" id="Fill-52" fill="#EEECE9"></path>
                <path d="M88.9355384,159.973185 C88.3070676,160.902747 87.6781966,161.832309 87.0497258,162.761871 C86.6878547,163.297171 87.5545039,163.799215 87.9139732,163.267521 C88.5428442,162.337959 89.171315,161.408397 89.7997858,160.478834 C90.1616568,159.943535 89.2946073,159.441491 88.9355384,159.973185" id="Fill-54" fill="#EEECE9"></path>
                <path d="M75.0896069,177.949597 C74.4611361,178.879159 73.8322651,179.808722 73.2037943,180.738284 C72.8419232,181.273584 73.7085724,181.775627 74.0680417,181.243934 C74.6969127,180.314371 75.3253835,179.384809 75.9538543,178.455247 C76.3157253,177.919947 75.4486759,177.417903 75.0896069,177.949597" id="Fill-56" fill="#EEECE9"></path>
                <path d="M81.0100417,168.296734 C80.6109427,169.860963 80.2122441,171.425592 79.8131451,172.989821 C79.6534255,173.614872 80.6181481,173.88132 80.7778678,173.256269 C81.1769667,171.691639 81.5760657,170.12741 81.9751646,168.563181 C82.1348843,167.938131 81.169361,167.671282 81.0100417,168.296734" id="Fill-58" fill="#EEECE9"></path>
                <path d="M85.3320391,177.310162 C84.995387,179.577573 84.3661156,181.750024 83.4101996,183.835129 C83.1435999,184.416906 84.0058457,184.926563 84.2744469,184.340778 C85.2659897,182.176741 85.9473,179.93257 86.2967618,177.57661 C86.3904319,176.94595 85.4261096,176.673893 85.3320391,177.310162" id="Fill-60" fill="#EEECE9"></path>
                <path d="M83.9212223,190.232641 C84.3307291,189.273829 84.502858,188.275351 84.3659555,187.236806 C84.2830934,186.606947 83.2811429,186.598533 83.3652058,187.236806 C83.4776901,188.088237 83.3964292,188.932456 83.0573753,189.726991 C82.8067876,190.313176 83.6686331,190.824435 83.9212223,190.232641" id="Fill-62" fill="#EEECE9"></path>
                <path d="M81.0538345,190.484023 C80.1515586,192.056666 79.2488825,193.628909 78.3466066,195.201552 C78.0255661,195.761293 78.8898135,196.266542 79.210854,195.707202 C80.1131298,194.134559 81.0154057,192.562316 81.9180819,190.989673 C82.2391223,190.429532 81.374875,189.924683 81.0538345,190.484023" id="Fill-64" fill="#EEECE9"></path>
                <path d="M72.7566193,198.780607 C73.7153375,196.313661 74.2997753,193.781405 74.5483615,191.147779 C74.6088067,190.506301 73.6072565,190.510307 73.5476118,191.147779 C73.3078322,193.690452 72.7157888,196.135361 71.7914964,198.514159 C71.5581216,199.115169 72.525246,199.376008 72.7566193,198.780607" id="Fill-66" fill="#EEECE9"></path>
                <path d="M73.2839343,206.181325 C73.0253406,206.573985 72.7663466,206.967046 72.5077529,207.360106 C72.3588414,207.586086 72.462519,207.914238 72.6870873,208.045258 C72.9316705,208.188298 73.2226885,208.092137 73.3720003,207.865756 C73.630594,207.472696 73.889588,207.080036 74.1481817,206.686975 C74.296693,206.460995 74.1930153,206.132844 73.9684471,206.001824 C73.7242642,205.858382 73.4332462,205.954945 73.2839343,206.181325" id="Fill-68" fill="#EEECE9"></path>
                <path d="M73.6041342,212.555919 C73.1786154,214.859791 72.4316559,217.034245 71.3356349,219.106929 C71.0346094,219.676286 71.8980562,220.183138 72.1998823,219.612579 C73.3339318,217.467774 74.1281267,215.209579 74.5688568,212.822367 C74.6853441,212.192107 73.721422,211.921653 73.6041342,212.555919" id="Fill-70" fill="#EEECE9"></path>
                <path d="M79.0753925,214.903024 C78.814397,215.816559 78.5526009,216.730495 78.2912051,217.64403 C78.1138723,218.264673 79.0793955,218.529919 79.256328,217.910077 C79.5177238,216.996542 79.7791196,216.083007 80.0405154,215.169471 C80.2178483,214.548428 79.2527253,214.283582 79.0753925,214.903024" id="Fill-72" fill="#EEECE9"></path>
                <path d="M84.1667262,198.457224 C83.9057307,199.501378 83.6443349,200.545533 83.3829391,201.589688 C83.2264219,202.215139 84.1915448,202.481988 84.3480621,201.856136 C84.6090576,200.811981 84.8704534,199.767826 85.1314489,198.723671 C85.2883664,198.09822 84.3232435,197.831372 84.1667262,198.457224" id="Fill-74" fill="#EEECE9"></path>
                <path d="M64.7932142,204.234694 C64.5322187,205.278848 64.2708229,206.323003 64.0094271,207.367158 C63.8529099,207.992609 64.8180328,208.259458 64.9745501,207.633606 C65.2355456,206.589451 65.4969414,205.545296 65.7583372,204.501141 C65.9148544,203.87569 64.9501318,203.608842 64.7932142,204.234694" id="Fill-76" fill="#EEECE9"></path>
                <path d="M89.2580199,189.843507 C89.1151129,190.886059 88.9714052,191.928611 88.8280979,192.970763 C88.7412328,193.601423 89.7051549,193.87388 89.7928205,193.23721 C89.9361279,192.194658 90.0798355,191.152106 90.2231429,190.109955 C90.3100079,189.479295 89.3460859,189.206837 89.2580199,189.843507" id="Fill-78" fill="#EEECE9"></path>
                <path d="M91.9936691,181.227266 C91.7210649,182.399235 91.448861,183.571606 91.1762568,184.743575 C91.0305477,185.370629 91.9952703,185.638279 92.1409795,185.009623 C92.4135837,183.837653 92.6861879,182.665683 92.9583918,181.493313 C93.1045012,180.866259 92.1397786,180.598609 91.9936691,181.227266" id="Fill-80" fill="#EEECE9"></path>
                <path d="M96.109272,172.610664 C96.0224069,171.975196 95.0580846,172.245651 95.144149,172.877112 C95.3410966,174.321539 95.5380441,175.766368 95.7345913,177.210795 C95.8214564,177.846664 96.7857787,177.576209 96.7001145,176.944748 C96.5027667,175.49992 96.3062195,174.055492 96.109272,172.610664" id="Fill-82" fill="#EEECE9"></path>
                <path d="M101.768591,167.009049 C102.244147,168.363326 102.512348,169.744046 102.562786,171.179258 C102.585603,171.821938 103.586353,171.825144 103.563536,171.179258 C103.510296,169.656299 103.238893,168.181019 102.733714,166.742602 C102.521555,166.138787 101.554431,166.398824 101.768591,167.009049" id="Fill-84" fill="#EEECE9"></path>
                <path d="M108.832442,175.489302 C108.759988,172.585221 108.192763,169.802544 107.103147,167.107214 C106.864568,166.517423 105.896243,166.775056 106.138024,167.373662 C107.193615,169.98445 107.76124,172.671366 107.831693,175.489302 C107.847705,176.132784 108.848454,176.135188 108.832442,175.489302" id="Fill-86" fill="#EEECE9"></path>
                <path d="M109.591211,185.13912 C108.550831,187.75111 107.510452,190.3631 106.469673,192.974689 C106.231094,193.573295 107.198619,193.833733 107.434796,193.241137 C108.475575,190.629147 109.515954,188.017558 110.556334,185.405568 C110.794912,184.806561 109.827388,184.546524 109.591211,185.13912" id="Fill-88" fill="#EEECE9"></path>
                <path d="M101.639174,201.945887 C100.614006,205.653719 99.1473076,209.158809 97.2258684,212.490409 C96.9028264,213.049749 97.7674741,213.554998 98.0897154,212.996059 C100.052786,209.592739 101.557113,205.9995 102.603897,202.212335 C102.776026,201.590089 101.810903,201.324442 101.639174,201.945887" id="Fill-90" fill="#EEECE9"></path>
                <path d="M161.270562,143.704041 C162.212067,142.490001 162.834934,141.126109 163.073512,139.60355 C163.171986,138.97289 162.208064,138.701233 162.10839,139.337102 C161.898232,140.678557 161.397457,141.919442 160.562431,142.995651 C160.172539,143.498897 160.875866,144.212897 161.270562,143.704041" id="Fill-92" fill="#EEECE9"></path>
                <path d="M154.20591,154.598912 C153.293226,156.948461 152.380142,159.29841 151.467058,161.647959 C151.233684,162.248969 152.200808,162.509407 152.432181,161.914006 C153.345265,159.564458 154.257949,157.214909 155.171033,154.86536 C155.404408,154.26435 154.437283,154.003511 154.20591,154.598912" id="Fill-94" fill="#EEECE9"></path>
                <path d="M149.104409,168.156498 C148.703709,169.066427 148.303008,169.975956 147.902709,170.885485 C147.644915,171.470067 148.507161,171.980124 148.766556,171.390734 C149.167256,170.481205 149.567956,169.571676 149.968656,168.662148 C150.226049,168.077565 149.363803,167.567508 149.104409,168.156498" id="Fill-96" fill="#EEECE9"></path>
                <path d="M147.825331,180.415541 C147.621978,179.807319 146.655254,180.068158 146.860608,180.681989 C146.991106,181.073447 147.122004,181.464905 147.252902,181.856363 C147.456254,182.464585 148.422978,182.203747 148.217624,181.589915 C148.087127,181.198457 147.956229,180.806999 147.825331,180.415541" id="Fill-98" fill="#EEECE9"></path>
                <path d="M153.676594,163.890128 C153.835513,163.265077 152.87079,162.998629 152.711471,163.62368 C152.383225,164.911845 152.054979,166.20041 151.726733,167.488175 C151.567013,168.113225 152.532136,168.380074 152.691456,167.754623 C153.019701,166.466458 153.348348,165.178293 153.676594,163.890128" id="Fill-100" fill="#EEECE9"></path>
                <path d="M159.46609,154.615179 C160.136993,153.319402 160.807895,152.023624 161.477997,150.727846 C161.774219,150.156486 160.910372,149.648833 160.61375,150.222196 C159.943248,151.517974 159.273146,152.813752 158.602243,154.10953 C158.306422,154.681291 159.169868,155.188543 159.46609,154.615179" id="Fill-102" fill="#EEECE9"></path>
                <path d="M169.464179,138.543047 C169.073087,139.97866 168.681994,141.414674 168.2905,142.850687 C168.121173,143.473334 169.086296,143.739381 169.255623,143.117135 C169.646716,141.681122 170.038209,140.245108 170.429302,138.809495 C170.59903,138.186448 169.633907,137.920802 169.464179,138.543047" id="Fill-104" fill="#EEECE9"></path>
                <path d="M179.017455,130.971322 C179.595889,129.009625 179.872496,127.014672 179.85128,124.969635 C179.844475,124.325352 178.843725,124.323749 178.85053,124.969635 C178.870946,126.926524 178.605947,128.82812 178.052733,130.704874 C177.869796,131.324315 178.835319,131.58916 179.017455,130.971322" id="Fill-106" fill="#EEECE9"></path>
                <path d="M184.849144,123.545962 C184.164631,122.417265 183.791552,121.199218 183.741914,119.8794 C183.717896,119.23672 182.717147,119.233514 182.741165,119.8794 C182.797607,121.369905 183.211117,122.775467 183.984896,124.051612 C184.318746,124.602137 185.184595,124.098892 184.849144,123.545962" id="Fill-108" fill="#EEECE9"></path>
                <path d="M189.128549,86.8772943 C188.741059,85.7013178 188.353169,84.5253414 187.966079,83.349365 C187.765128,82.7399407 186.798404,83.0007791 187.000956,83.6154121 C187.388446,84.7913886 187.775936,85.967365 188.163426,87.1437421 C188.364377,87.7531663 189.331101,87.4919273 189.128549,86.8772943" id="Fill-110" fill="#EEECE9"></path>
                <path d="M180.006877,132.80252 C180.07813,133.472045 180.063319,134.124341 179.978856,134.759408 L179.453662,136.703075 C179.206677,137.294068 178.891641,137.864627 178.492943,138.40754 C178.111057,138.927213 178.978907,139.427254 179.35679,138.912789 C180.663368,137.135001 181.241001,134.997408 181.007626,132.80252 C180.939976,132.168254 179.938425,132.161041 180.006877,132.80252" id="Fill-112" fill="#EEECE9"></path>
                <path d="M173.89682,153.203206 C173.636225,153.464045 173.374829,153.725284 173.114234,153.986523 C172.658292,154.44289 173.365622,155.15128 173.821964,154.694513 C174.082559,154.433674 174.343554,154.172435 174.60455,153.911597 C175.060491,153.454829 174.353162,152.746439 173.89682,153.203206" id="Fill-114" fill="#EEECE9"></path>
                <path d="M168.282054,161.884236 L166.826564,164.299896 C166.493114,164.853627 167.358162,165.357674 167.690811,164.805546 C168.175574,164.000193 168.660738,163.194839 169.145901,162.389886 C169.479351,161.836156 168.614303,161.332108 168.282054,161.884236" id="Fill-116" fill="#EEECE9"></path>
                <path d="M162.947578,170.187632 C162.405172,171.220968 161.862365,172.254305 161.320359,173.287642 C161.020935,173.8578 161.884382,174.364652 162.184206,173.793292 C162.726613,172.759955 163.269019,171.726618 163.811425,170.693281 C164.110849,170.123123 163.247403,169.616271 162.947578,170.187632" id="Fill-118" fill="#EEECE9"></path>
                <path d="M159.355848,177.592637 C158.630905,178.746977 158.212591,180.005092 158.062479,181.357765 C157.991626,181.99764 158.992776,181.992432 159.063228,181.357765 C159.193326,180.184193 159.593626,179.095964 160.219695,178.098287 C160.563552,177.550967 159.697704,177.047721 159.355848,177.592637" id="Fill-120" fill="#EEECE9"></path>
                <path d="M157.288659,184.845066 C157.032467,184.695214 156.766268,184.807803 156.603746,185.024568 C156.212653,185.546645 155.82116,186.069123 155.430067,186.591201 C155.267545,186.807564 155.395241,187.150941 155.609802,187.276352 C155.865193,187.426204 156.131392,187.313615 156.294314,187.096851 L157.467994,185.530218 C157.630515,185.313453 157.50282,184.970477 157.288659,184.845066" id="Fill-122" fill="#EEECE9"></path>
                <path d="M162.924921,159.430873 C162.902104,160.713429 162.488594,161.917853 161.683591,162.922742 C161.284893,163.420779 161.98862,164.133977 162.391722,163.630732 C163.366852,162.413085 163.89845,160.995503 163.925671,159.430873 C163.936879,158.78619 162.93613,158.78619 162.924921,159.430873" id="Fill-124" fill="#EEECE9"></path>
                <path d="M159.438309,168.23495 L157.034109,172.905199 C156.739888,173.47696 157.602935,173.984613 157.898356,173.410448 C158.699756,171.853832 159.500756,170.297216 160.302157,168.7406 C160.596777,168.168438 159.73333,167.661186 159.438309,168.23495" id="Fill-126" fill="#EEECE9"></path>
                <path d="M154.293456,177.450438 C153.775868,178.10634 153.25828,178.762243 152.740693,179.418145 C152.345597,179.918586 153.049324,180.631785 153.448423,180.126135 C153.96601,179.470633 154.483598,178.814731 155.001586,178.158829 C155.396282,177.658388 154.692955,176.944788 154.293456,177.450438" id="Fill-128" fill="#EEECE9"></path>
                <path d="M151.275955,185.806241 C151.400449,185.176383 150.435726,184.90713 150.311233,185.539794 C150.149912,186.358369 150.280009,187.175342 150.732348,187.88173 C151.078607,188.423039 151.945257,187.921396 151.596596,187.37608 C151.292368,186.901282 151.166273,186.364379 151.275955,185.806241" id="Fill-130" fill="#EEECE9"></path>
                <path d="M187.14034,144.698713 C186.631559,145.749279 186.123578,146.800245 185.614797,147.850811 C185.335388,148.428582 186.198034,148.937036 186.479445,148.35606 C186.987425,147.305494 187.496207,146.254929 188.004587,145.204363 C188.283997,144.626592 187.421351,144.118137 187.14034,144.698713" id="Fill-132" fill="#EEECE9"></path>
                <path d="M184.011797,152.139699 C183.329686,153.561288 182.647975,154.982877 181.965864,156.404467 C181.688456,156.982638 182.551102,157.491494 182.830111,156.909716 C183.511822,155.488127 184.193933,154.066938 184.875644,152.645349 C185.153452,152.066776 184.290405,151.558322 184.011797,152.139699" id="Fill-134" fill="#EEECE9"></path>
                <path d="M179.235579,161.484525 C178.193999,162.92174 177.152819,164.358956 176.111239,165.796171 C175.732955,166.318649 176.600805,166.81909 176.975486,166.301821 C178.017066,164.864605 179.058646,163.42739 180.099826,161.990174 C180.47851,161.467696 179.61066,160.966855 179.235579,161.484525" id="Fill-136" fill="#EEECE9"></path>
                <path d="M168.034989,179.186916 C166.989806,181.607785 165.782101,183.9369 164.407071,186.185879 C164.069619,186.737206 164.935067,187.241253 165.270918,186.691529 C166.646349,184.442549 167.854053,182.113034 168.899236,179.692566 C169.152226,179.106782 168.29038,178.596324 168.034989,179.186916" id="Fill-138" fill="#EEECE9"></path>
                <path d="M128.001882,73.1475791 C127.246916,75.3873434 126.322223,77.5469731 125.2234,79.6388889 C124.924376,80.2094478 125.787423,80.7162997 126.087648,80.1445387 C127.226501,77.9768956 128.184819,75.7347273 128.966604,73.4140269 C129.173159,72.801798 128.206835,72.5389562 128.001882,73.1475791" id="Fill-140" fill="#EEECE9"></path>
                <path d="M117.627711,77.2926256 C116.835517,78.1977468 116.043324,79.102868 115.25113,80.0079892 C114.828013,80.4912013 115.533342,81.2023966 115.95846,80.7163798 C116.751054,79.8112586 117.543247,78.9061374 118.335841,78.0010162 C118.758157,77.517804 118.053229,76.8066088 117.627711,77.2926256" id="Fill-142" fill="#EEECE9"></path>
                <path d="M112.110298,79.2157778 C111.316103,80.1188956 110.521508,81.0220135 109.727313,81.925532 C109.302995,82.4075421 110.008323,83.1187374 110.434643,82.6339226 C111.229238,81.730404 112.023433,80.8272862 112.818428,79.9241684 C113.242346,79.4417576 112.537017,78.730963 112.110298,79.2157778" id="Fill-144" fill="#EEECE9"></path>
                <path d="M121.880096,69.4171094 C121.238816,70.0802239 120.597936,70.7437391 119.956655,71.4072542 C119.50872,71.8708333 120.215649,72.5800253 120.664385,72.1152441 C121.305265,71.4521296 121.946546,70.7886145 122.587826,70.1255 C123.035762,69.6619209 122.328832,68.952729 121.880096,69.4171094" id="Fill-146" fill="#EEECE9"></path>
                <path d="M115.537065,70.1214131 C116.045846,69.7275512 115.332912,69.023568 114.829334,69.4130226 C113.897036,70.1346354 113.276171,71.1916118 113.096837,72.3575714 C112.999964,72.9882313 113.964287,73.2598879 114.06196,72.6240192 C114.219278,71.6015007 114.719252,70.7540764 115.537065,70.1214131" id="Fill-148" fill="#EEECE9"></path>
                <path d="M135.081425,67.1482562 C134.559834,67.9315727 134.039044,68.7148892 133.517453,69.4982057 C133.159185,70.0363101 134.025834,70.5383539 134.3817,70.0038556 C134.902891,69.2205391 135.424081,68.4372226 135.945672,67.6539061 C136.30394,67.1158017 135.437291,66.6137579 135.081425,67.1482562" id="Fill-150" fill="#EEECE9"></path>
                <path d="M235.481117,31.9900125 C234.515193,31.9900125 234.513592,33.4925378 235.481117,33.4925378 C236.44704,33.4925378 236.448642,31.9900125 235.481117,31.9900125" id="Fill-152" fill="#EF5322"></path>
                <path d="M251.292961,33.3722156 C252.258884,33.3722156 252.260486,31.8696903 251.292961,31.8696903 C250.327037,31.8696903 250.325436,33.3722156 251.292961,33.3722156" id="Fill-154" fill="#EF5322"></path>
                <path d="M236.332915,29.4061499 C235.316153,29.1994024 234.300592,29.2366651 233.313853,29.5688233 C232.403171,29.8753385 232.793464,31.3269782 233.712952,31.0176583 C234.442299,30.7724462 235.176048,30.7007257 235.933816,30.8549849 C236.876922,31.0465068 237.280425,29.5984731 236.332915,29.4061499" id="Fill-156" fill="#EF5322"></path>
                <path d="M252.602942,30.5412577 C253.007645,30.5961499 253.403542,30.4434934 253.526034,30.0163755 C253.626509,29.667389 253.403142,29.1469142 253.001641,29.0924226 C251.712275,28.9181297 250.486957,29.1176651 249.350906,29.7695607 C248.512678,30.2503688 249.268044,31.5489513 250.108674,31.0669412 C250.86444,30.6330119 251.731089,30.4234597 252.602942,30.5412577" id="Fill-158" fill="#EF5322"></path>
                <path d="M238.040434,46.4128526 C241.462998,47.9438257 245.090515,48.1922432 248.671197,47.0463173 C249.587884,46.7530243 249.19559,45.3017853 248.272098,45.5974822 C245.096119,46.6139907 241.852489,46.4817684 238.798201,45.1154721 C237.923546,44.7244149 237.158974,46.01859 238.040434,46.4128526" id="Fill-160" fill="#EF5322"></path>
                <path d="M243.844021,38.397261 C242.902916,38.1873082 242.501415,39.6353418 243.445322,39.846096 C244.640618,40.1129445 247.349047,40.0877021 247.720125,38.4818031 C247.895456,37.7229277 247.296607,36.8334327 247.214546,36.0685472 C247.068837,34.7098637 247.421901,33.4485439 248.140039,32.2986112 C248.654424,31.4768301 247.355852,30.7215607 246.844268,31.5405371 C246.094907,32.7389513 245.669789,34.0800051 245.676994,35.501995 C245.680597,36.1607021 245.773466,36.8298267 245.961207,37.461288 C246.079696,37.8595573 246.2182,37.9312779 245.983624,38.2077425 C245.583324,38.6793351 244.313173,38.5022375 243.844021,38.397261" id="Fill-162" fill="#EF5322"></path>
                <g id="Group-166" transform="translate(188.538231, 0.278468)">
                    <mask id="mask-4" fill="white">
                        <use xlink:href="#path-3"></use>
                    </mask>
                    <g id="Clip-165"></g>
                    <path d="M76.5248046,23.1385361 C73.6514523,16.3927987 69.6388466,9.7820883 63.4065782,5.92680884 C53.8846457,0.0377111953 43.2839051,-0.172241667 32.2944733,1.95252938 C26.7447162,3.02553274 17.4001165,8.21826002 9.83605051,26.7542129 C5.92191857,36.3459334 2.6434628,45.6471657 0.48384511,63.3304856 C0.26968469,65.0854351 1.64111198,66.6340378 3.40723492,66.6340378 L26.7919516,66.6340378 C28.4608016,66.6340378 29.7970025,65.2485092 29.7341555,63.5793038 C29.5408106,58.4366607 29.0520445,50.1118694 30.676061,44.7680883 C32.6239201,38.3573139 35.5288961,29.259223 38.2165093,24.8085428 C38.4386757,24.4399233 38.7376997,24.1354115 39.0819576,23.8998156 L39.0855603,23.883388 C39.1179845,23.8918021 39.1516097,23.8986136 39.188037,23.9014183 C46.6380175,24.4683711 54.017145,23.0267482 61.4579186,23.0559974 C63.473028,23.0636102 65.8668211,22.9253779 67.6977926,23.9046237 C70.6984403,25.5089199 70.2216832,29.4471388 70.272121,32.3143577 C70.328163,35.5029166 70.3954133,38.8261018 69.5079486,41.9217045 C68.8418496,44.2428055 67.5632919,46.416058 66.1822574,48.3781556 C62.927019,53.0019267 57.61504,58.0484082 51.5304823,57.5427583 C44.1269366,56.9277247 39.1099785,51.1836708 34.7078811,45.7745799 C34.3011764,45.2745395 33.5966487,45.9869368 34.000151,46.4829705 C38.1884883,51.6292196 43.006097,57.1941725 49.9012619,58.3461085 C51.5036622,58.6137583 53.0448166,58.5688829 54.5167192,58.2783947 C54.4818931,60.7589637 54.3694088,62.1484991 54.2833444,63.5055799 C54.1756637,65.200829 55.5250745,66.6340378 57.2223459,66.6340378 L79.0611045,66.6340378 C80.5113908,66.6340378 81.7435138,65.5766607 81.9716847,64.1430513 C82.0657552,63.5524587 82.1518196,62.9610647 82.2290775,62.3684688 C83.9611749,49.1089839 81.7639291,35.4396102 76.5248046,23.1385361" id="Fill-164" fill="#EF5322" mask="url(#mask-4)"></path>
                </g>
                <path d="M47.0037288,58.9432263 C47.9696523,58.9432263 47.9712535,57.440701 47.0037288,57.440701 C46.0378052,57.440701 46.036204,58.9432263 47.0037288,58.9432263" id="Fill-167" fill="#EF5322"></path>
                <path d="M27.0051486,60.1362714 C27.9710721,60.1362714 27.9726733,58.6337461 27.0051486,58.6337461 C26.039225,58.6337461 26.0376238,60.1362714 27.0051486,60.1362714" id="Fill-169" fill="#EF5322"></path>
                <path d="M49.9500558,54.0508438 C48.6238624,53.6044936 47.2620423,53.5455946 45.8938174,53.823662 C44.9479088,54.0159852 45.3482087,55.4644195 46.2929163,55.272497 C47.4021472,55.0469178 48.4813556,55.1398741 49.5509568,55.4996788 C50.4688444,55.808598 50.8623391,54.3577596 49.9500558,54.0508438" id="Fill-171" fill="#EF5322"></path>
                <path d="M29.1774958,56.1023316 C30.1402169,56.1792609 30.1358136,54.676335 29.1774958,54.5998064 C27.5402694,54.4683855 25.93907,54.8806785 24.5616382,55.7741801 C23.7538331,56.2982609 24.5055963,57.5996481 25.3194058,57.0715606 C26.5006907,56.3050724 27.7740445,55.9897424 29.1774958,56.1023316" id="Fill-173" fill="#EF5322"></path>
                <path d="M31.1508139,81.1072367 C36.0148574,82.7063242 41.1110748,82.3761694 45.7605576,80.253001 C46.6380148,79.8523276 45.8762442,78.5569505 45.00279,78.9556205 C40.718781,80.9121088 36.0140568,81.1256677 31.5499129,79.6584017 C30.6300238,79.3558933 30.2357285,80.8067316 31.1508139,81.1072367" id="Fill-175" fill="#EF5322"></path>
                <path d="M72.5208828,65.0834259 C71.2331181,65.0834259 71.2307163,67.0867929 72.5208828,67.0867929 C73.8090477,67.0867929 73.8110492,65.0834259 72.5208828,65.0834259" id="Fill-177" fill="#EF5322"></path>
                <path d="M36.4626328,63.1751387 C37.3400901,66.0030916 38.4825459,70.7642936 36.0098937,69.9661522 C33.9767708,69.3098492 35.3822235,65.6256572 36.4626328,63.1751387 M33.5948847,68.6956168 C33.7445969,70.0010108 34.5724169,71.7387313 36.0919552,71.798031 C37.6979582,71.8609367 38.784372,70.076738 39.0361606,68.7144485 C39.5009087,66.2006236 38.2123435,63.367462 37.3360871,61.0567785 C37.3384889,60.6845529 37.0070406,60.4457515 36.6447693,60.4229131 C36.2352625,60.374031 35.8005369,60.6188424 35.7885279,61.0407515 C34.8322115,63.4283643 33.2898562,66.0359468 33.5948847,68.6956168" id="Fill-179" fill="#EF5322"></path>
                <g id="Group-183" transform="translate(0.000000, 16.510791)">
                    <mask id="mask-6" fill="white">
                        <use xlink:href="#path-5"></use>
                    </mask>
                    <g id="Clip-182"></g>
                    <path d="M61.6674328,132.196779 C60.366058,126.351756 62.1922259,125.829678 61.1078136,120.990345 C60.7755648,119.509857 58.5879261,115.713476 58.1904283,114.255426 C57.2989606,110.984729 58.8997597,110.004281 57.6424178,106.856992 C57.0147477,105.285551 53.9520535,102.909557 53.2367177,101.375779 C52.460136,99.7101801 52.4613369,96.725564 51.5850805,95.1100488 C50.3869831,92.9019377 48.4407252,92.4247357 47.064094,90.3240051 C45.9312454,88.5955 45.8780055,86.6145707 44.6294703,84.9682037 C43.0554913,82.8927155 41.5735813,81.4783384 39.8827147,79.7390152 C42.1095828,80.2979545 44.3948946,80.4353855 46.6145573,79.6821195 C50.5539081,78.3446717 53.2863549,74.7794798 57.6424178,74.5278569 C58.2824973,74.4909949 58.2869006,73.4889108 57.6424178,73.5261734 C54.4196037,73.7124865 52.0474268,75.4494057 49.4138541,77.1302306 C45.5761795,79.5795471 41.7817372,79.5458906 37.5661795,77.9536145 C29.7635348,75.0070623 22.1218106,70.2586818 17.8778316,62.8442205 C15.5685018,58.8078367 15.17901,54.3146852 15.8899426,49.7766582 C16.4531645,46.1798131 17.5419801,42.6631027 17.8422049,39.0253889 C18.1072034,35.8127896 18.0711765,31.734335 21.7207102,30.4489747 C22.9348196,30.0214562 24.2486037,29.8956448 25.4831285,29.52983 C27.0903324,29.0534293 28.0678646,28.2588939 29.2315363,27.0612811 C31.01207,25.2277997 32.702136,24.3667525 35.1319561,23.5750219 C37.0974283,22.9347458 38.9179921,22.2463889 40.5796367,20.9810623 C44.115085,18.2889377 47.295067,14.9264865 49.8257627,11.2623283 L50.304121,15.1059882 C50.7424493,17.3281229 51.408148,19.5053822 52.2944118,21.5896852 C53.4829021,24.3843822 55.7782214,24.8992475 57.6424178,27.2960758 C60.0446172,30.3856684 59.7584028,34.3443215 60.3488451,35.7538906 C62.9179696,41.8877997 67.3308751,39.7534125 69.1314238,44.3908064 C71.5864628,40.5675808 79.0092229,42.4174899 76.239148,48.8022205 C75.4489561,50.4461835 74.6427522,52.1542542 74.6055243,53.9781195 C74.5658946,55.9454259 75.4241375,57.8057525 76.2647672,59.5847424 C78.8278871,65.0122643 81.4586577,71.7271498 81.0063189,77.7132104 C80.0387942,90.5067121 80.5563819,100.848493 79.4463504,108.815884 C81.5919576,101.918692 83.7415678,95.0223013 85.9312079,88.1387323 C87.8798676,82.0120354 89.8489426,75.8901465 91.940109,69.8103283 C94.5880925,62.1113889 97.435025,53.8959815 103.530391,48.1887896 C104.987082,46.8256987 106.58668,45.5796044 108.283952,44.4420926 C107.864037,42.9523889 107.402091,41.5167761 106.689557,39.9148838 C105.349754,36.9022205 108.288355,32.3657963 105.198841,28.9236111 C100.615808,23.8166279 99.2003474,24.513399 97.2997237,19.812298 C96.4194643,17.6358401 95.8558421,14.9809781 94.0392814,13.4520084 C91.8540445,11.6129175 91.0298271,12.1033418 88.0475933,10.5242879 C86.0336847,9.45729461 84.954076,4.93128788 79.8606607,5.36161111 C73.633196,5.88769529 72.9799066,2.91830471 69.9296217,2.32851347 C66.5895198,1.68262795 64.3018061,0.390055556 61.0229501,0.101170034 C57.1576547,-0.239001684 53.839169,0.9738367 50.0895603,1.27634512 C47.5048241,1.48469529 43.7388031,0.525082492 41.2217177,1.10205219 C39.1829906,1.56923737 37.5825918,3.40792761 35.595103,4.14797138 C32.7481705,5.20775253 31.0825228,4.2878064 28.354079,5.97544276 C25.9462754,7.46474579 24.8418481,9.54384007 22.8767762,11.544803 C20.5005963,13.9644697 17.4054778,14.2842071 15.5737057,17.2015101 C13.4465123,20.588803 15.0453099,20.6785539 13.4869426,24.3375034 C11.7916727,28.3173923 8.6241,27.9283384 7.40118396,32.0825202 C6.38722444,35.5247054 6.68024393,38.219234 6.00974168,41.7423552 C5.62945682,43.7405135 3.68399955,44.3174832 2.4798976,48.8783485 C2.08400105,50.374463 2.50551679,55.5018805 2.11522444,57.0208333 C0.793434333,62.1634764 0.451578261,62.6603114 0.0973128936,64.8884562 C-0.524753073,68.8066414 2.07279265,69.1560286 1.05402954,74.3760017 C0.407144978,77.6919747 -0.0984337331,79.3359377 0.220204948,81.7752374 C0.494010045,83.8671532 2.11682564,85.5335539 2.53193658,87.6038333 C2.91142084,89.4946111 2.09721094,96.6706717 2.57476867,98.5394125 C3.70561574,102.963648 6.28394708,103.627965 7.48764873,106.74921 C8.74258876,110.002678 7.60173418,112.49687 9.22054678,115.580052 C10.903007,118.784237 11.6835918,117.22682 13.7475378,120.194207 C16.128121,123.616759 14.657019,127.606665 17.5295708,130.636958 C18.5207132,131.682715 22.3323684,133.834732 23.3983669,134.814379 C25.2873819,136.550897 24.9655408,140.473891 27.3108976,141.453537 C33.1965063,143.91247 36.9573234,140.598099 38.6742094,141.0152 C46.4988706,142.914793 49.3678196,141.14582 53.1502529,137.621497 C57.0059411,134.027857 62.813091,137.344231 61.6674328,132.196779" id="Fill-181" fill="#EF5322" mask="url(#mask-6)"></path>
                </g>
            </g>
        </g>
    </g>
</svg>