<?xml version="1.0" encoding="utf-8"?>
<!-- Generator: Adobe Illustrator 16.0.0, SVG Export Plug-In . SVG Version: 6.00 Build 0)  -->
<!DOCTYPE svg PUBLIC "-//W3C//DTD SVG 1.1//EN" "http://www.w3.org/Graphics/SVG/1.1/DTD/svg11.dtd">
<svg version="1.1" id="Layer_1" xmlns="http://www.w3.org/2000/svg" xmlns:xlink="http://www.w3.org/1999/xlink" x="0px" y="0px"
	 width="132.352px" height="16px" viewBox="0 0 132.352 16" enable-background="new 0 0 132.352 16" xml:space="preserve">
<g>
	<path fill="#FFFFFF" d="M11.369,0.589h2.561v15.166h-2.777L2.56,4.689v11.066H0V0.589h2.56l8.809,11.325V0.589z"/>
	<path fill="#FFFFFF" d="M43.849,13.66c-1.533,1.498-3.428,2.246-5.684,2.246c-2.257,0-4.151-0.748-5.685-2.246
		c-1.533-1.495-2.3-3.362-2.3-5.597c0-2.234,0.767-4.101,2.3-5.598s3.428-2.245,5.685-2.245c2.256,0,4.151,0.748,5.684,2.245
		c1.534,1.497,2.3,3.364,2.3,5.598C46.149,10.298,45.383,12.165,43.849,13.66z M41.973,4.169c-1.035-1.07-2.304-1.606-3.808-1.606
		c-1.504,0-2.773,0.537-3.807,1.606c-1.035,1.07-1.552,2.369-1.552,3.894c0,1.527,0.517,2.825,1.552,3.894
		c1.034,1.072,2.303,1.605,3.807,1.605c1.504,0,2.773-0.533,3.808-1.605c1.034-1.069,1.551-2.367,1.551-3.894
		C43.524,6.538,43.007,5.239,41.973,4.169z"/>
	<path fill="#FFFFFF" d="M74.508,5.514c0,2.502-1.093,4.078-3.276,4.73l3.971,5.511h-3.255l-3.623-5.099h-3.363v5.099H62.4V0.589
		h5.642c2.314,0,3.971,0.39,4.969,1.172C74.008,2.542,74.508,3.793,74.508,5.514z M71.102,7.662c0.521-0.448,0.78-1.167,0.78-2.159
		c0-0.991-0.268-1.671-0.802-2.04c-0.536-0.368-1.491-0.553-2.865-0.553h-3.254v5.424h3.19C69.597,8.334,70.581,8.111,71.102,7.662z
		"/>
	<path fill="#FFFFFF" d="M101.867,0.589v2.408h-8.094v4.014h7.269v2.278h-7.269v4.058h8.354v2.408H91.214V0.589H101.867z"/>
	<path fill="#FFFFFF" d="M129.791,0.589h2.561v15.166h-2.778l-8.592-11.066v11.066h-2.56V0.589h2.56l8.81,11.325V0.589z"/>
</g>
</svg>
