<?xml version="1.0" encoding="utf-8"?>
<!-- Generator: Adobe Illustrator 16.0.0, SVG Export Plug-In . SVG Version: 6.00 Build 0)  -->
<!DOCTYPE svg PUBLIC "-//W3C//DTD SVG 1.1//EN" "http://www.w3.org/Graphics/SVG/1.1/DTD/svg11.dtd">
<svg version="1.1" id="Layer_1" xmlns="http://www.w3.org/2000/svg" xmlns:xlink="http://www.w3.org/1999/xlink" x="0px" y="0px"
	 width="168px" height="38px" viewBox="0 0 168 38" enable-background="new 0 0 168 38" xml:space="preserve">
<g>
	<defs>
		<rect id="SVGID_1_" y="0.032" width="31.639" height="38"/>
	</defs>
	<clipPath id="SVGID_2_">
		<use xlink:href="#SVGID_1_"  overflow="visible"/>
	</clipPath>
	<g clip-path="url(#SVGID_2_)">
		<path d="M15.82,38.032C7.097,38.032,0,30.937,0,22.214V0.032h31.639v22.182C31.639,30.937,24.543,38.032,15.82,38.032z
			 M1.083,1.116v21.098c0,8.125,6.61,14.734,14.736,14.734c8.125,0,14.736-6.609,14.736-14.734V1.116H1.083z"/>
	</g>
	<g clip-path="url(#SVGID_2_)">
		<rect x="8.426" y="-2.916" transform="matrix(0.7073 0.7069 -0.7069 0.7073 8.9864 -3.705)" width="1.083" height="23.832"/>
	</g>
	<g clip-path="url(#SVGID_2_)">
		<rect x="19.564" y="9.698" transform="matrix(0.7064 0.7078 -0.7078 0.7064 23.7188 -6.8411)" width="1.084" height="30.948"/>
	</g>
	<g clip-path="url(#SVGID_2_)">
		<rect x="16.11" y="-5.327" transform="matrix(0.7064 0.7078 -0.7078 0.7064 15.3805 -7.4343)" width="1.084" height="40.302"/>
	</g>
</g>
<g>
	<path d="M56.48,12.143h2.36v13.979h-2.56l-7.92-10.2v10.2H46V12.143h2.36l8.12,10.439V12.143z"/>
	<path d="M86.42,24.191c-1.413,1.381-3.16,2.07-5.24,2.07c-2.08,0-3.827-0.689-5.24-2.07c-1.414-1.379-2.12-3.1-2.12-5.159
		s0.707-3.78,2.12-5.16c1.413-1.38,3.16-2.069,5.24-2.069c2.08,0,3.827,0.689,5.24,2.069c1.414,1.38,2.12,3.101,2.12,5.16
		S87.834,22.813,86.42,24.191z M84.69,15.442c-0.954-0.986-2.124-1.48-3.51-1.48s-2.557,0.494-3.51,1.48
		c-0.954,0.986-1.43,2.184-1.43,3.59c0,1.407,0.477,2.604,1.43,3.59c0.953,0.987,2.123,1.479,3.51,1.479s2.556-0.492,3.51-1.479
		c0.953-0.986,1.43-2.183,1.43-3.59C86.12,17.626,85.644,16.429,84.69,15.442z"/>
	<path d="M114.68,16.683c0,2.307-1.007,3.759-3.02,4.359l3.66,5.08h-3l-3.34-4.7h-3.101v4.7h-2.36V12.143h5.2
		c2.134,0,3.66,0.359,4.58,1.08C114.22,13.942,114.68,15.096,114.68,16.683z M111.54,18.662c0.48-0.413,0.72-1.076,0.72-1.99
		c0-0.913-0.246-1.54-0.739-1.88c-0.494-0.34-1.374-0.51-2.641-0.51h-3v5h2.94C110.153,19.282,111.061,19.076,111.54,18.662z"/>
	<path d="M139.899,12.143v2.22h-7.46v3.7h6.7v2.1h-6.7v3.74h7.7v2.22h-10.06V12.143H139.899z"/>
	<path d="M165.64,12.143H168v13.979h-2.561l-7.92-10.2v10.2h-2.359V12.143h2.359l8.12,10.439V12.143z"/>
</g>
</svg>
